<mxfile host="drawio-plugin" agent="Mozilla/5.0 (Windows NT 10.0; Win64; x64) AppleWebKit/537.36 (KHTML, like Gecko) Chrome/122.0.0.0 Safari/537.36" modified="2025-03-09T19:22:31.400Z" version="22.1.22" etag="eWIZeROAdYMKrLJInIxN" type="embed">
  <diagram name="PÃ¡gina-1" id="eREHq-UVcGgZIPyFQgwv">
    <mxGraphModel dx="694" dy="1111" grid="1" gridSize="10" guides="1" tooltips="1" connect="1" arrows="1" fold="1" page="1" pageScale="1" pageWidth="827" pageHeight="1169" math="0" shadow="0">
      <root>
        <mxCell id="0" />
        <mxCell id="1" parent="0" />
        <mxCell id="RMPcy6pSxchOs8MdaluI-1" value="E" style="rounded=1;whiteSpace=wrap;html=1;" parent="1" vertex="1">
          <mxGeometry x="330" y="130" width="70" height="30" as="geometry" />
        </mxCell>
        <mxCell id="RMPcy6pSxchOs8MdaluI-2" value="" style="endArrow=none;html=1;rounded=0;exitX=0.5;exitY=0;exitDx=0;exitDy=0;entryX=0.5;entryY=1;entryDx=0;entryDy=0;" parent="1" source="RMPcy6pSxchOs8MdaluI-5" target="RMPcy6pSxchOs8MdaluI-1" edge="1">
          <mxGeometry width="50" height="50" relative="1" as="geometry">
            <mxPoint x="290" y="200" as="sourcePoint" />
            <mxPoint x="290" y="140" as="targetPoint" />
          </mxGeometry>
        </mxCell>
        <mxCell id="RMPcy6pSxchOs8MdaluI-4" value="V" style="rounded=1;whiteSpace=wrap;html=1;" parent="1" vertex="1">
          <mxGeometry x="290" y="200" width="70" height="30" as="geometry" />
        </mxCell>
        <mxCell id="RMPcy6pSxchOs8MdaluI-5" value="N" style="rounded=1;whiteSpace=wrap;html=1;" parent="1" vertex="1">
          <mxGeometry x="210" y="200" width="70" height="30" as="geometry" />
        </mxCell>
        <mxCell id="RMPcy6pSxchOs8MdaluI-6" value="S" style="rounded=1;whiteSpace=wrap;html=1;" parent="1" vertex="1">
          <mxGeometry x="370" y="200" width="70" height="30" as="geometry" />
        </mxCell>
        <mxCell id="RMPcy6pSxchOs8MdaluI-7" value="(S)" style="rounded=1;whiteSpace=wrap;html=1;" parent="1" vertex="1">
          <mxGeometry x="450" y="200" width="70" height="30" as="geometry" />
        </mxCell>
        <mxCell id="RMPcy6pSxchOs8MdaluI-10" value="" style="endArrow=none;html=1;rounded=0;exitX=0.5;exitY=0;exitDx=0;exitDy=0;entryX=0.5;entryY=1;entryDx=0;entryDy=0;" parent="1" source="RMPcy6pSxchOs8MdaluI-4" target="RMPcy6pSxchOs8MdaluI-1" edge="1">
          <mxGeometry width="50" height="50" relative="1" as="geometry">
            <mxPoint x="255" y="200" as="sourcePoint" />
            <mxPoint x="360" y="160" as="targetPoint" />
            <Array as="points" />
          </mxGeometry>
        </mxCell>
        <mxCell id="RMPcy6pSxchOs8MdaluI-12" value="" style="endArrow=none;html=1;rounded=0;exitX=0.5;exitY=0;exitDx=0;exitDy=0;" parent="1" source="RMPcy6pSxchOs8MdaluI-6" edge="1">
          <mxGeometry width="50" height="50" relative="1" as="geometry">
            <mxPoint x="335" y="210" as="sourcePoint" />
            <mxPoint x="360" y="160" as="targetPoint" />
            <Array as="points" />
          </mxGeometry>
        </mxCell>
        <mxCell id="RMPcy6pSxchOs8MdaluI-13" value="" style="endArrow=none;html=1;rounded=0;exitX=0.5;exitY=0;exitDx=0;exitDy=0;entryX=0.5;entryY=1;entryDx=0;entryDy=0;" parent="1" source="RMPcy6pSxchOs8MdaluI-7" target="RMPcy6pSxchOs8MdaluI-1" edge="1">
          <mxGeometry width="50" height="50" relative="1" as="geometry">
            <mxPoint x="415" y="210" as="sourcePoint" />
            <mxPoint x="370" y="170" as="targetPoint" />
            <Array as="points" />
          </mxGeometry>
        </mxCell>
        <mxCell id="RMPcy6pSxchOs8MdaluI-14" value="=VE" style="rounded=1;whiteSpace=wrap;html=1;" parent="1" vertex="1">
          <mxGeometry x="450" y="280" width="70" height="30" as="geometry" />
        </mxCell>
        <mxCell id="RMPcy6pSxchOs8MdaluI-15" value="OEE" style="rounded=1;whiteSpace=wrap;html=1;" parent="1" vertex="1">
          <mxGeometry x="290" y="280" width="70" height="30" as="geometry" />
        </mxCell>
        <mxCell id="RMPcy6pSxchOs8MdaluI-17" value="" style="endArrow=none;html=1;rounded=0;exitX=0.5;exitY=0;exitDx=0;exitDy=0;entryX=0.5;entryY=1;entryDx=0;entryDy=0;" parent="1" source="RMPcy6pSxchOs8MdaluI-15" target="RMPcy6pSxchOs8MdaluI-6" edge="1">
          <mxGeometry width="50" height="50" relative="1" as="geometry">
            <mxPoint x="350" y="280" as="sourcePoint" />
            <mxPoint x="400" y="220" as="targetPoint" />
          </mxGeometry>
        </mxCell>
        <mxCell id="RMPcy6pSxchOs8MdaluI-18" value="" style="endArrow=none;html=1;rounded=0;exitX=0.5;exitY=0;exitDx=0;exitDy=0;entryX=0.5;entryY=1;entryDx=0;entryDy=0;" parent="1" source="RMPcy6pSxchOs8MdaluI-14" target="RMPcy6pSxchOs8MdaluI-6" edge="1">
          <mxGeometry width="50" height="50" relative="1" as="geometry">
            <mxPoint x="350" y="280" as="sourcePoint" />
            <mxPoint x="400" y="230" as="targetPoint" />
          </mxGeometry>
        </mxCell>
        <mxCell id="RMPcy6pSxchOs8MdaluI-19" value="E" style="rounded=1;whiteSpace=wrap;html=1;" parent="1" vertex="1">
          <mxGeometry x="344" y="350" width="70" height="30" as="geometry" />
        </mxCell>
        <mxCell id="RMPcy6pSxchOs8MdaluI-20" value="O" style="rounded=1;whiteSpace=wrap;html=1;" parent="1" vertex="1">
          <mxGeometry x="240" y="350" width="70" height="30" as="geometry" />
        </mxCell>
        <mxCell id="RMPcy6pSxchOs8MdaluI-24" value="" style="endArrow=none;html=1;rounded=0;" parent="1" edge="1">
          <mxGeometry width="50" height="50" relative="1" as="geometry">
            <mxPoint x="280" y="350" as="sourcePoint" />
            <mxPoint x="320" y="310" as="targetPoint" />
          </mxGeometry>
        </mxCell>
        <mxCell id="RMPcy6pSxchOs8MdaluI-25" value="" style="endArrow=none;html=1;rounded=0;exitX=0.5;exitY=0;exitDx=0;exitDy=0;" parent="1" source="RMPcy6pSxchOs8MdaluI-19" edge="1">
          <mxGeometry width="50" height="50" relative="1" as="geometry">
            <mxPoint x="270" y="360" as="sourcePoint" />
            <mxPoint x="320" y="310" as="targetPoint" />
          </mxGeometry>
        </mxCell>
        <mxCell id="RMPcy6pSxchOs8MdaluI-26" value="/" style="rounded=1;whiteSpace=wrap;html=1;" parent="1" vertex="1">
          <mxGeometry x="360" y="430" width="70" height="30" as="geometry" />
        </mxCell>
        <mxCell id="RMPcy6pSxchOs8MdaluI-27" value="*" style="rounded=1;whiteSpace=wrap;html=1;" parent="1" vertex="1">
          <mxGeometry x="280" y="430" width="70" height="30" as="geometry" />
        </mxCell>
        <mxCell id="RMPcy6pSxchOs8MdaluI-28" value="-" style="rounded=1;whiteSpace=wrap;html=1;" parent="1" vertex="1">
          <mxGeometry x="200" y="430" width="70" height="30" as="geometry" />
        </mxCell>
        <mxCell id="RMPcy6pSxchOs8MdaluI-29" value="+" style="rounded=1;whiteSpace=wrap;html=1;" parent="1" vertex="1">
          <mxGeometry x="120" y="430" width="70" height="30" as="geometry" />
        </mxCell>
        <mxCell id="RMPcy6pSxchOs8MdaluI-30" value="" style="endArrow=none;html=1;rounded=0;exitX=0.5;exitY=0;exitDx=0;exitDy=0;" parent="1" source="RMPcy6pSxchOs8MdaluI-29" edge="1">
          <mxGeometry width="50" height="50" relative="1" as="geometry">
            <mxPoint x="220" y="430" as="sourcePoint" />
            <mxPoint x="270" y="380" as="targetPoint" />
          </mxGeometry>
        </mxCell>
        <mxCell id="RMPcy6pSxchOs8MdaluI-31" value="" style="endArrow=none;html=1;rounded=0;exitX=0.5;exitY=0;exitDx=0;exitDy=0;" parent="1" source="RMPcy6pSxchOs8MdaluI-28" edge="1">
          <mxGeometry width="50" height="50" relative="1" as="geometry">
            <mxPoint x="220" y="430" as="sourcePoint" />
            <mxPoint x="270" y="380" as="targetPoint" />
          </mxGeometry>
        </mxCell>
        <mxCell id="RMPcy6pSxchOs8MdaluI-32" value="" style="endArrow=none;html=1;rounded=0;exitX=0.5;exitY=0;exitDx=0;exitDy=0;" parent="1" source="RMPcy6pSxchOs8MdaluI-27" edge="1">
          <mxGeometry width="50" height="50" relative="1" as="geometry">
            <mxPoint x="220" y="430" as="sourcePoint" />
            <mxPoint x="270" y="380" as="targetPoint" />
          </mxGeometry>
        </mxCell>
        <mxCell id="RMPcy6pSxchOs8MdaluI-33" value="" style="endArrow=none;html=1;rounded=0;exitX=0.414;exitY=-0.033;exitDx=0;exitDy=0;exitPerimeter=0;" parent="1" source="RMPcy6pSxchOs8MdaluI-26" edge="1">
          <mxGeometry width="50" height="50" relative="1" as="geometry">
            <mxPoint x="220" y="430" as="sourcePoint" />
            <mxPoint x="270" y="380" as="targetPoint" />
          </mxGeometry>
        </mxCell>
      </root>
    </mxGraphModel>
  </diagram>
</mxfile>
